<?xml version="1.0" encoding="UTF-8" standalone="no"?>
<!-- Created with Inkscape (http://www.inkscape.org/) -->

<svg
   width="20.032627mm"
   height="20.032627mm"
   viewBox="0 0 20.032627 20.032627"
   version="1.1"
   id="svg1"
   xml:space="preserve"
   xmlns:inkscape="http://www.inkscape.org/namespaces/inkscape"
   xmlns:sodipodi="http://sodipodi.sourceforge.net/DTD/sodipodi-0.dtd"
   xmlns:xlink="http://www.w3.org/1999/xlink"
   xmlns="http://www.w3.org/2000/svg"
   xmlns:svg="http://www.w3.org/2000/svg"><sodipodi:namedview
     id="namedview1"
     pagecolor="#ffffff"
     bordercolor="#000000"
     borderopacity="0.25"
     inkscape:showpageshadow="2"
     inkscape:pageopacity="0.0"
     inkscape:pagecheckerboard="0"
     inkscape:deskcolor="#d1d1d1"
     inkscape:document-units="mm"><inkscape:page
       x="7.8015519e-06"
       y="5.426763e-06"
       width="20.032627"
       height="20.032627"
       id="page4"
       margin="0"
       bleed="0" /></sodipodi:namedview><defs
     id="defs1"><linearGradient
       x1="44.98"
       y1="262.12"
       x2="261.952"
       y2="45.148998"
       gradientUnits="userSpaceOnUse"
       gradientTransform="translate(8.9141682e-5,-42.817545)"
       spreadMethod="pad"
       id="linearGradient2821"><stop
         style="stop-opacity:1;stop-color:#fec053"
         offset="0"
         id="stop2818" /><stop
         style="stop-opacity:1;stop-color:#f2203e"
         offset="0.47200003"
         id="stop2819" /><stop
         style="stop-opacity:1;stop-color:#b71fa8"
         offset="0.713"
         id="stop2820" /><stop
         style="stop-opacity:1;stop-color:#5351d6"
         offset="1"
         id="stop2821" /></linearGradient><clipPath
       clipPathUnits="userSpaceOnUse"
       id="clipPath5907"><path
         d="m 3048.8391,5761.4023 h 236.6055 v 236.6055 h -236.6055 z"
         transform="matrix(1.2975192,0,0,1.2975192,-3955.9272,-7475.5299)"
         clip-rule="evenodd"
         id="path5907" /></clipPath><clipPath
       clipPathUnits="userSpaceOnUse"
       id="clipPath5909"><path
         d="m 3048.8391,5761.4023 h 236.6055 v 236.6055 h -236.6055 z"
         transform="matrix(1.2975192,0,0,1.2975192,-3955.9272,-7475.5299)"
         clip-rule="evenodd"
         id="path5909" /></clipPath><clipPath
       clipPathUnits="userSpaceOnUse"
       id="clipPath5911"><path
         d="m 3048.8391,5761.4023 h 236.6055 v 236.6055 h -236.6055 z"
         transform="matrix(1.2975192,0,0,1.2975192,-3955.9272,-7475.5299)"
         clip-rule="evenodd"
         id="path5911" /></clipPath><linearGradient
       inkscape:collect="always"
       xlink:href="#linearGradient2821"
       id="linearGradient4"
       gradientUnits="userSpaceOnUse"
       gradientTransform="translate(8.9141684e-5,-42.817545)"
       x1="44.98"
       y1="262.12"
       x2="261.952"
       y2="45.148998"
       spreadMethod="pad" /></defs><g
     id="g3091"
     inkscape:groupmode="layer"
     inkscape:label="2"
     transform="matrix(0.26458333,0,0,0.26458334,-802.97571,-558.5503)"><path
       id="path5904"
       d="m 307,153.5 c 3e-5,5.02731 -0.24637,10.04253 -0.73914,15.04564 -0.49276,5.0031 -1.22955,9.97 -2.21035,14.90071 -0.98078,4.93073 -2.20084,9.80151 -3.66022,14.61235 -1.45932,4.81085 -3.15094,9.53859 -5.07483,14.1832 -1.92386,4.64464 -4.07071,9.18379 -6.44055,13.61749 -2.36987,4.4337 -4.95133,8.74057 -7.74436,12.92061 -2.79303,4.18007 -5.78418,8.21318 -8.97348,12.09935 -3.1893,3.88615 -6.56137,7.60667 -10.11621,11.16151 -3.55484,3.55484 -7.27536,6.92694 -11.16151,10.11624 -3.88617,3.18927 -7.9193,6.18042 -12.09937,8.97345 -4.18003,2.79303 -8.4869,5.37449 -12.92059,7.74436 -4.4337,2.36984 -8.97287,4.51669 -13.61751,6.44055 -4.64462,1.92389 -9.37234,3.61551 -14.18318,5.07486 -4.81084,1.45935 -9.68162,2.67941 -14.61233,3.66019 -4.93071,0.9808 -9.89763,1.71759 -14.90073,2.21035 C 163.54253,306.75363 158.52731,307 153.5,307 c -5.02731,0 -10.04253,-0.24637 -15.04562,-0.73914 -5.0031,-0.49276 -9.97002,-1.22955 -14.90075,-2.21035 -4.93072,-0.98078 -9.80149,-2.20084 -14.61233,-3.66022 -4.81084,-1.45932 -9.538575,-3.15094 -14.183213,-5.07483 -4.64463,-1.92386 -9.183792,-4.07071 -13.617485,-6.44055 -4.433693,-2.36987 -8.740578,-4.95133 -12.920639,-7.74436 -4.180054,-2.79303 -8.213165,-5.78418 -12.099331,-8.97348 -3.886165,-3.1893 -7.606674,-6.56137 -11.161526,-10.11621 -3.554847,-3.55484 -6.926918,-7.27536 -10.11621,-11.16151 -3.189295,-3.88617 -6.180457,-7.9193 -8.973483,-12.09937 -2.793026,-4.18003 -5.374469,-8.4869 -7.744329,-12.92059 -2.36986,-4.4337 -4.516724,-8.97287 -6.440594,-13.61751 C 9.7606211,207.59726 8.0690107,202.86954 6.6096582,198.0587 5.1503057,193.24786 3.9302397,188.37708 2.9494591,183.44637 1.9686788,178.51566 1.2319074,173.54874 0.73914438,168.54564 0.24638146,163.54253 0,158.52731 0,153.5 c 0,-5.02731 0.24638146,-10.04253 0.73914438,-15.04562 0.49276302,-5.0031 1.22953442,-9.97002 2.21031472,-14.90075 0.9807806,-4.93072 2.2008466,-9.80149 3.6601991,-14.61233 1.4593525,-4.81084 3.1509629,-9.538575 5.0748318,-14.183213 1.92387,-4.64463 4.070735,-9.183792 6.440596,-13.617485 2.36986,-4.433693 4.951301,-8.740578 7.744327,-12.920639 2.793026,-4.180054 5.784188,-8.213165 8.973483,-12.099331 3.189292,-3.886165 6.561363,-7.606674 10.11621,-11.161526 3.554852,-3.554847 7.275361,-6.926918 11.161526,-10.11621 3.886166,-3.189295 7.919277,-6.180457 12.099331,-8.973483 4.180061,-2.793026 8.486946,-5.374469 12.920639,-7.744329 4.433693,-2.36986 8.972855,-4.516724 13.617485,-6.440594 4.644638,-1.9238689 9.372373,-3.6154793 14.183213,-5.0748318 4.81084,-1.4593525 9.68161,-2.6794185 14.61233,-3.6601991 4.93073,-0.9807803 9.89765,-1.7175517 14.90075,-2.21031472 C 143.45747,0.24638146 148.47269,0 153.5,0 c 5.02731,0 10.04253,0.24638146 15.04564,0.73914438 5.0031,0.49276302 9.97,1.22953442 14.90071,2.21031472 4.93073,0.9807806 9.80151,2.2008466 14.61235,3.6601991 4.81085,1.4593525 9.53859,3.1509629 14.1832,5.0748318 4.64464,1.92387 9.18379,4.070735 13.61749,6.440596 4.4337,2.36986 8.74057,4.951301 12.92061,7.744327 4.18007,2.793026 8.21318,5.784188 12.09935,8.973483 3.88615,3.189292 7.60667,6.561363 11.16151,10.11621 3.55484,3.554852 6.92694,7.275361 10.11624,11.161526 3.18927,3.886166 6.18042,7.919277 8.97345,12.099331 2.79303,4.180061 5.37449,8.486946 7.74436,12.920639 2.36984,4.433693 4.51669,8.972855 6.44055,13.617485 1.92389,4.644638 3.61551,9.372373 5.07486,14.183213 1.45935,4.81084 2.67941,9.68161 3.66019,14.61233 0.9808,4.93073 1.71759,9.89765 2.21035,14.90075 0.49277,5.00309 0.73917,10.01831 0.73914,15.04562 z"
       style="fill:url(#linearGradient4);fill-opacity:1;fill-rule:nonzero;stroke:none"
       transform="matrix(0.24662448,0,0,0.24662448,3034.8691,2111.0563)"
       clip-path="url(#clipPath5907)" /><path
       id="path5908"
       d="m 194.685,246.138 h -81.834 c -28.371401,0 -51.452601,-23.08099 -51.452601,-51.453 v -81.834 c 0,-28.3715 23.0812,-51.452601 51.452601,-51.452601 h 81.834 c 28.37201,0 51.453,23.081101 51.453,51.452601 v 81.834 c 0,28.37201 -23.08099,51.453 -51.453,51.453 z M 112.851,73.905098 c -21.474001,0 -38.945902,17.471901 -38.945902,38.945902 v 81.834 c 0,21.474 17.471901,38.946 38.945902,38.946 h 81.834 c 21.474,0 38.946,-17.472 38.946,-38.946 v -81.834 c 0,-21.474001 -17.472,-38.945902 -38.946,-38.945902 z"
       style="fill:#ffffff;fill-opacity:1;fill-rule:nonzero;stroke:none"
       transform="matrix(0.24662448,0,0,0.24662448,3034.8691,2111.0563)"
       clip-path="url(#clipPath5909)" /><path
       id="path5910"
       d="m 153.771,199.52699 c -25.22899,0 -45.755,-20.52598 -45.755,-45.75599 0,-25.22899 20.52601,-45.755 45.755,-45.755 25.23001,0 45.75599,20.52601 45.75599,45.755 0,25.23001 -20.52598,45.75599 -45.75599,45.75599 z m 0,-79.00799 c -18.334,0 -33.249,14.914 -33.249,33.249 0,18.335 14.918,33.249 33.249,33.249 18.332,0 33.249,-14.914 33.249,-33.249 0,-18.335 -14.914,-33.249 -33.249,-33.249 z"
       style="fill:#ffffff;fill-opacity:1;fill-rule:nonzero;stroke:none"
       transform="matrix(0.24662448,0,0,0.24662448,3034.8691,2111.0563)"
       clip-path="url(#clipPath5911)" /><g
       id="g6175"
       transform="translate(39.240625,256.84772)"><path
         id="path6175"
         d="m 731.7213,68.70835 h 56.47513 v 56.47513 H 731.7213 Z"
         style="fill:#000000;fill-opacity:0;fill-rule:nonzero;stroke:none"
         transform="matrix(1.3333333,0,0,-1.3333333,2020,2021.1198)" /></g></g></svg>
