<?xml version="1.0" encoding="UTF-8" standalone="no"?>
<!-- Created with Inkscape (http://www.inkscape.org/) -->

<svg
   width="129.69768mm"
   height="135.46666mm"
   viewBox="0 0 129.69768 135.46666"
   version="1.1"
   id="svg1"
   xml:space="preserve"
   inkscape:version="1.3 (0e150ed6c4, 2023-07-21)"
   sodipodi:docname="LogoVetor.svg"
   inkscape:export-filename="logo_preto.png"
   inkscape:export-xdpi="200"
   inkscape:export-ydpi="200"
   xmlns:inkscape="http://www.inkscape.org/namespaces/inkscape"
   xmlns:sodipodi="http://sodipodi.sourceforge.net/DTD/sodipodi-0.dtd"
   xmlns="http://www.w3.org/2000/svg"
   xmlns:svg="http://www.w3.org/2000/svg"><sodipodi:namedview
     id="namedview1"
     pagecolor="#ffffff"
     bordercolor="#000000"
     borderopacity="0.25"
     inkscape:showpageshadow="2"
     inkscape:pageopacity="0.0"
     inkscape:pagecheckerboard="0"
     inkscape:deskcolor="#d1d1d1"
     inkscape:document-units="mm"
     inkscape:zoom="1.5332452"
     inkscape:cx="137.2905"
     inkscape:cy="263.49341"
     inkscape:window-width="2560"
     inkscape:window-height="1511"
     inkscape:window-x="-9"
     inkscape:window-y="1341"
     inkscape:window-maximized="1"
     inkscape:current-layer="g1" /><defs
     id="defs1"><rect
       x="260.88455"
       y="528.94342"
       width="292.84293"
       height="90.657387"
       id="rect157024-3-3-9-6" /></defs><g
     inkscape:label="Layer 1"
     inkscape:groupmode="layer"
     id="layer1"
     transform="translate(-35.276785,-32.08844)"><g
       id="g1"
       transform="matrix(1.6456325,0,0,1.6456325,-62.532671,-64.165878)"><path
         style="fill:#000000;fill-opacity:1;stroke-width:0.798615"
         d="M 102.8782,124.6405 C 92.620663,123.84217 81.859825,118.15758 75.579211,110.21935 71.545867,105.12149 69.766119,101.6599 68.736558,96.910397 65.653175,82.686411 72.22114,68.774229 83.983263,64.61501 l 0.883202,-0.312305 0.463135,-0.628863 c 1.217127,-1.652695 4.027884,-3.608846 5.461203,-3.800789 0.643859,-0.08616 0.731173,0.128416 0.784112,1.92769 0.05147,1.749147 -0.01495,1.659333 0.761243,1.028098 1.44769,-1.177205 3.745585,-2.540353 4.282344,-2.540353 0.35793,0 0.547528,0.521453 0.468741,1.289223 -0.09402,0.915863 -0.02764,0.945924 0.877189,0.397161 4.030688,-2.444671 10.813968,-2.30655 11.622468,0.236648 0.12626,0.397148 0.27844,0.219063 0.27844,-0.325798 0,-0.903631 -0.64905,-1.957264 -1.68208,-2.73056 -0.55915,-0.418567 -0.42632,-0.667594 0.35437,-0.664357 1.04697,0.0041 1.91489,0.581152 2.45654,1.632551 0.14059,0.272883 0.29919,0.469255 0.35247,0.436378 0.37141,-0.229169 0.40114,1.155111 0.0401,1.866431 -0.34713,0.683891 -0.35036,0.787577 -0.0245,0.787577 2.98935,0 5.99132,5.40722 5.37179,9.675828 -0.0764,0.525991 -0.131,1.095574 -0.12164,1.265747 0.01,0.170167 0.0294,0.727089 0.0442,1.237597 l 0.027,0.928203 -0.39233,0.722579 c -0.5049,0.929953 -1.32592,1.823653 -1.9218,2.091903 -0.38818,0.174748 -0.51738,0.319418 -0.74672,0.836102 l -0.27732,0.624785 0.26038,0.200652 c 0.1432,0.110404 0.8179,0.52037 1.38735,1.020877 1.70617,1.499591 2.62724,2.364951 4.05674,3.957903 5.2046,5.799693 6.96214,14.676442 4.14479,21.686462 -0.4783,0.92901 -2.03405,3.1853 -2.32272,3.36864 -0.39978,0.25392 0.33696,0.0329 1.05786,-0.31739 2.60375,-1.26508 4.93124,-4.7953 5.72577,-8.68463 0.31593,-1.54643 0.34956,-1.59955 1.01254,-1.59955 0.83884,0 0.96549,0.1547 1.01485,1.23951 0.55902,12.28955 -8.87065,21.60774 -23.4475,23.17031 -1.19131,0.12774 -1.72985,0.12787 -3.35714,0.001 z m 6.25462,-2.29131 c 8.73278,-2.08217 13.76491,-5.46804 16.99647,-11.43598 0.54134,-0.99973 0.90577,-2.14817 0.84487,-2.66248 l -0.0354,-0.29893 -0.40648,0.61109 c -5.19169,7.80484 -18.26521,8.28569 -28.730745,1.05672 l -0.850568,-0.58752 -0.3891,0.20777 c -0.650579,0.3474 -2.689299,1.12597 -3.882664,1.48277 -2.384017,0.71279 -3.175901,0.88818 -4.282459,0.94846 l -1.126948,0.0614 -0.851828,-0.28679 c -4.269652,-1.43749 -7.073934,-6.81261 -4.241203,-8.12933 1.015918,-0.47222 2.056249,-0.3846 3.951304,0.33281 1.117303,0.42297 1.296471,0.39586 2.337858,-0.35386 l 0.898617,-0.64694 -0.324348,-0.28128 c -0.178416,-0.1547 -0.691204,-0.58186 -1.139586,-0.94924 -2.896372,-2.373187 -5.011425,-5.531309 -5.772789,-8.619746 -0.226677,-0.91952 -0.409354,-1.435918 -0.531761,-1.503219 -1.473106,-0.809847 -3.741115,-4.147583 -3.77234,-5.551587 -0.02601,-1.172356 0.633293,-1.366519 1.095708,-0.32264 1.138503,2.570087 6.706047,7.270603 8.611698,7.270603 0.452052,0 0.694888,0.274023 0.824164,0.929978 0.249273,1.265029 1.49665,2.715823 2.915202,3.390692 l 0.732528,0.348473 h 1.35235 c 1.70917,0 2.531087,-0.434252 3.672759,-1.940478 0.681614,-0.899254 0.700958,-0.856015 -0.53989,-1.207211 -3.107009,-0.879341 -5.431268,-1.886347 -7.232691,-3.133589 -1.436217,-0.994392 -4.324517,-3.488319 -4.860694,-4.197014 -0.288746,-0.381637 -0.677873,-0.712093 -1.147591,-0.974561 -2.201361,-1.23005 -4.500095,-3.731536 -4.338062,-4.720714 0.337027,-2.057509 0.656945,-3.009107 1.126932,-3.352027 0.197565,-0.144158 0.434077,-0.366493 0.52557,-0.494116 0.789772,-1.101465 1.490541,-1.037472 2.967018,0.271016 0.896506,0.794484 0.898835,0.79508 1.14025,0.287188 0.970469,-2.041767 2.514763,-1.143894 3.00033,1.744458 0.255626,1.520546 0.402023,1.896276 0.86662,2.224079 1.687089,1.190373 9.551841,3.720673 9.886147,3.180635 0.11908,-0.192391 -0.229766,-0.952831 -0.906787,-1.976607 -0.657542,-0.994299 -2.500972,-5.258843 -2.699146,-6.244065 -0.154426,-0.767853 -0.334929,-0.954648 -1.526601,-1.580125 -2.090581,-1.09728 -2.622261,-2.68851 -1.680952,-5.030852 0.247945,-0.616956 0.450807,-1.220852 0.450807,-1.341999 0,-0.19418 -1.423937,-1.59382 -1.508075,-1.482372 -0.01689,0.0225 -0.101339,0.21798 -0.187597,0.434564 -0.683497,1.716646 -2.602572,3.64943 -3.420127,3.444577 -0.464325,-0.116363 -0.37218,-0.509801 0.33673,-1.437937 1.394373,-1.825549 2.365682,-4.351731 2.491096,-6.478896 l 0.06801,-1.153227 h -0.206425 c -1.632818,0 -4.811219,4.483309 -5.387196,7.598948 -0.20316,1.098905 -0.653477,1.278763 -1.089409,0.435119 -0.187481,-0.362848 -0.228044,-1.786982 -0.07506,-2.633608 l 0.09144,-0.506293 -0.669883,0.690744 c -1.343451,1.385254 -2.413813,3.53904 -3.238412,6.516354 -0.456063,1.646663 -0.523105,1.797114 -0.760401,1.706201 -0.515871,-0.197632 -0.663557,-3.896061 -0.218888,-5.481754 0.272681,-0.972419 0.139868,-0.87655 -0.484619,0.349844 -0.910511,1.788051 -1.21378,3.645462 -1.197389,7.333406 0.01087,2.295199 -0.01223,2.685884 -0.158928,2.742008 -0.686381,0.262955 -1.646582,-2.473797 -1.812285,-5.165426 -0.09889,-1.605997 -0.183094,-1.525788 -0.413473,0.39379 -0.555995,4.632552 -0.042,7.911157 1.995668,12.730222 0.745176,1.762298 0.592951,2.034005 -0.526518,0.939704 -1.695271,-1.657178 -3.471781,-5.242899 -4.081448,-8.238079 -0.199096,-0.978124 -0.28322,-1.177234 -0.282597,-0.668935 0.0082,7.065981 2.412689,13.069539 7.647541,19.097574 l 0.178319,0.20533 -0.335035,-0.0806 c -2.644864,-0.636721 -7.307749,-5.812698 -8.45652,-9.387027 -0.25125,-0.781725 -0.336933,-0.57832 -0.125039,0.29678 1.423675,5.878969 2.630844,8.397266 5.969801,12.453667 l 1.571723,1.90946 -0.380051,-0.0732 c -1.456091,-0.28024 -4.379881,-2.78307 -5.605488,-4.79842 -0.563623,-0.926792 -0.08779,0.3884 0.866715,2.39543 1.326463,2.78927 4.669753,6.9767 7.905753,9.90187 6.357613,5.74693 13.008965,8.71448 22.203988,9.90645 0.21696,0.028 1.358,0.0355 2.53568,0.0163 l 2.14121,-0.0348 z m -5.86018,-1.30034 c -5.620147,-0.89331 -11.776755,-3.40032 -11.776755,-4.79555 0,-0.50277 -0.03616,-0.5101 1.950436,0.39558 4.326696,1.97256 8.582199,3.00171 13.952469,3.37424 1.54386,0.10717 1.69852,0.17974 1.25583,0.58977 -0.69171,0.64064 -2.9457,0.82322 -5.38198,0.43596 z m 6.53635,-2.82066 c -5.27414,-0.31178 -12.183741,-2.63647 -11.844707,-3.98506 0.09754,-0.38776 0.407387,-0.37477 1.501931,0.063 5.117156,2.0464 10.655996,2.95017 14.737916,2.40478 0.68182,-0.0912 1.48055,-0.16605 1.77497,-0.16658 l 0.53531,-7.6e-4 v 0.28129 c 0,1.00732 -2.95281,1.62539 -6.70542,1.40355 z M 91.50553,80.804103 c -1.01549,-0.371707 -1.887314,-1.66074 -1.792095,-2.64966 0.05419,-0.562973 0.449032,-0.568732 0.805892,-0.01223 0.800419,1.249287 1.868605,1.651853 3.09863,1.167831 0.622617,-0.245004 0.808031,-0.167877 0.808031,0.336052 0,0.921011 -1.712394,1.599727 -2.920458,1.157535 z m 22.98637,31.642257 c 6.85074,-1.22022 10.24474,-10.0447 7.52916,-18.176046 -0.74431,-2.22867 -1.57446,-4.224975 -3.10343,-6.20211 -1.67832,-2.170285 -3.40559,-3.37774 -5.22063,-5.049941 -0.34851,-0.321081 -0.85357,-0.591365 -1.00155,-0.721752 -0.19344,-0.170438 -0.28338,-0.196859 -0.3201,-0.09402 -0.61116,1.711378 -3.60002,3.823615 -6.15543,4.350091 -5.30466,1.092891 -8.590512,0.765618 -14.072671,-1.401605 -2.038305,-0.805797 -1.833561,-0.803779 -2.450638,-0.02411 -1.345293,1.699876 -1.791668,2.887378 -1.285619,3.420263 2.1103,2.222303 8.009024,4.460497 12.696968,4.817735 3.12871,0.238409 7.17304,-0.545699 9.63466,-1.867976 0.86324,-0.463688 1.21977,-0.487801 1.39921,-0.0947 0.28808,0.631208 -0.24202,1.141294 -2.4881,2.394102 -1.14776,0.64019 -1.6817,1.218428 -2.02715,2.19536 -0.32152,0.909225 -0.39562,0.800906 1.32126,1.930929 3.09339,2.035996 5.01329,4.00766 5.48926,5.63717 0.44495,1.52348 -0.19892,1.32572 -2.14879,-0.65994 -5.51445,-5.615618 -10.29167,-7.323743 -14.59362,-5.218022 -2.706489,1.324755 -7.588306,5.997432 -7.404587,7.087342 0.12273,0.7282 0.889027,2.29455 1.565445,3.1999 l 0.696719,0.93254 0.34521,-0.074 c 1.281366,-0.27459 4.523,-1.71119 6.994279,-3.09966 1.053704,-0.59201 2.084274,-1.14231 2.290134,-1.22287 l 0.37431,-0.14648 0.23213,0.23175 c 0.35522,0.35463 0.19679,0.68479 -0.7673,1.59905 l -0.86095,0.81649 0.75601,0.72206 c 3.72906,3.5617 8.66733,5.41449 12.57581,4.71833 z m -25.926096,-2.27738 c 0,-0.0408 -0.191693,-0.33191 -0.42595,-0.64693 -0.734079,-0.98714 -0.849131,-1.2128 -1.32447,-2.59744 l -0.463296,-1.3496 -1.062546,-0.54328 c -1.308418,-0.66897 -1.834733,-0.76234 -2.287816,-0.40579 l -0.323711,0.25473 0.06203,0.60013 c 0.166479,1.61043 1.748116,3.39519 3.916166,4.41916 0.677984,0.3202 1.909579,0.49371 1.909579,0.26902 z m 2.014441,-0.67121 c 0.469638,-0.0937 0.459667,-0.13506 -0.372721,-1.53989 -0.396377,-0.66903 -0.85947,-1.54238 -1.029074,-1.94079 -0.341091,-0.80125 -0.480798,-0.87096 -0.837697,-0.418 -0.395212,0.50161 0.150388,2.08966 1.180807,3.43694 0.423347,0.55352 0.478483,0.57758 1.058685,0.46174 z m 0.859307,-9.10345 c 0.433878,-0.399523 0.826907,-0.72654 0.873413,-0.726728 0.444968,-0.0014 -0.01087,-0.461754 -0.668217,-0.673664 -1.950725,-0.629174 -3.237766,-1.634717 -4.370741,-3.414775 -0.564192,-0.88644 -1.093107,-1.39257 -2.128561,-2.036864 -1.019495,-0.634376 -1.05576,-0.623796 -0.805634,0.235184 0.644943,2.214867 2.61261,4.732379 5.24176,6.706547 1.03609,0.77797 0.908982,0.78412 1.85798,-0.0897 z M 87.062001,86.53174 c 0.240426,-0.579201 1.073913,-1.814236 1.49482,-2.214987 0.343477,-0.327031 0.454329,-0.625884 0.232135,-0.625884 -0.06326,0 -0.328018,-0.134239 -0.588438,-0.298419 l -0.473498,-0.29842 -0.656701,0.720331 c -1.232015,1.351415 -1.54898,2.342272 -0.905215,2.829885 0.540457,0.40938 0.687939,0.39089 0.896897,-0.112578 z M 106.2292,84.817289 c 2.7457,-0.657177 4.97639,-2.721743 5.77567,-5.345542 0.40814,-1.339793 0.49558,-1.4808 0.97398,-1.570397 2.38958,-0.447554 3.16047,-3.827734 0.93017,-4.078699 -0.98658,-0.111083 -1.55327,0.45208 -1.79993,1.788512 -0.16105,0.872596 -0.45455,1.073926 -0.99515,0.682577 -0.15988,-0.115684 -0.77246,-0.444941 -1.36129,-0.731575 -1.74649,-0.850133 -3.50351,-2.645718 -3.97721,-4.064528 -0.0637,-0.190703 -0.27482,0.0225 -0.79598,0.803832 -1.8531,2.778082 -4.32852,4.184755 -7.369803,4.187925 l -0.817053,7.45e-4 v 0.389576 c 0,0.537788 0.412794,1.58962 0.788687,2.009606 l 0.312332,0.348976 0.681477,0.0041 c 0.592872,0.0041 0.723596,-0.03602 1.005231,-0.305233 0.704209,-0.672986 1.167699,0.271677 0.513899,1.047387 -0.508602,0.603463 -0.972182,0.723176 -1.864745,0.481584 -0.285901,-0.07735 -0.248324,0.101864 0.23624,1.126568 1.219837,2.579582 4.597145,3.982272 7.763475,3.224418 z m -3.77844,-1.089112 c -0.87067,-0.4284 -0.76203,-0.942117 0.18119,-0.856717 0.66493,0.06015 1.39832,-0.175583 2.07756,-0.667893 0.49844,-0.361262 0.86852,0.376571 0.47722,0.951465 -0.49354,0.725125 -1.8497,1.009213 -2.73596,0.573145 z m -1.11964,-1.973681 c -0.48497,-0.233667 -0.46419,-0.92292 0.0306,-1.017369 0.39723,-0.07585 1.16998,0.08439 1.36998,0.284129 0.5113,0.510437 -0.62669,1.106179 -1.40065,0.73324 z m 3.6002,-2.246173 c -0.66265,-0.147613 -1.26426,-0.752558 -1.26426,-1.271287 0,-0.502107 0.12788,-0.562567 0.64413,-0.304379 0.93279,0.466532 1.75458,0.343339 2.61511,-0.392027 l 0.48835,-0.41732 0.16173,0.217884 c 0.71835,0.967775 -1.15155,2.499821 -2.64506,2.167129 z m -19.767722,4.484326 c 0.247308,-0.390957 0.708695,-0.943322 1.025293,-1.227505 l 0.575639,-0.516682 -0.164344,-0.76956 C 86.509833,81.05565 86.38925,80.26172 86.332259,79.714598 86.252328,78.947111 86.174902,78.666181 85.993403,78.484994 l -0.235237,-0.234858 -0.107958,0.283558 c -0.05947,0.155959 -0.143789,0.52194 -0.187558,0.813274 -0.195791,1.303487 -0.87433,1.147565 -2.584936,-0.594021 -1.163062,-1.184128 -1.472929,-0.913248 -0.569026,0.497446 0.801028,1.250128 0.195058,1.569152 -1.023886,0.53905 -0.953576,-0.805851 -1.060459,-0.324985 -0.15689,0.705863 0.794849,0.9068 0.709723,1.377385 -0.226474,1.252024 -0.247335,-0.03319 -0.449696,-0.02492 -0.449696,0.01824 0,0.424471 3.581713,2.937147 4.187816,2.937865 0.04092,5.4e-5 0.276759,-0.319769 0.524081,-0.710711 z m 14.446415,-9.507471 c 2.443087,-0.64016 4.474477,-2.821865 5.413707,-5.814364 0.5141,-1.637927 1.41121,-1.502393 1.6773,0.253403 0.35715,2.3567 2.64769,5.29886 4.13744,5.314493 0.19047,0.0027 0.50072,-1.051803 0.42335,-1.437964 -0.0795,-0.396837 0.0606,-0.513636 0.44204,-0.368809 0.19237,0.07302 0.46808,0.05608 0.88285,-0.05406 0.78173,-0.207726 1.54409,-0.205558 2.05085,0.0054 0.22251,0.0928 0.43682,0.16877 0.47626,0.16877 0.26561,0 -0.27549,-3.163092 -0.75277,-4.400485 -0.81311,-2.108052 -3.12722,-4.321671 -4.66475,-4.462205 -0.43659,-0.03996 -0.67766,-0.144333 -1.07061,-0.463743 -1.24109,-1.008848 -1.94797,-1.254231 -3.83164,-1.330066 -2.67955,-0.107841 -5.155768,0.633049 -7.693196,2.301944 -1.566968,1.030617 -2.602408,2.368363 -1.332531,1.721592 0.717621,-0.365489 2.787634,-1.121189 3.291528,-1.201643 l 0.472536,-0.07545 -0.07451,0.372112 c -0.113937,0.569015 -1.131539,1.339969 -3.904868,2.95862 -1.230131,0.717959 -2.141225,1.622619 -2.141225,2.126121 0,0.517347 3.336935,-0.802057 5.21159,-2.060637 1.044977,-0.701568 1.215179,-0.760252 1.435666,-0.495036 0.68454,0.823448 -3.306621,3.670172 -6.083783,4.339295 -1.969077,0.474419 -0.836711,1.694269 1.247038,1.343383 3.024375,-0.509286 5.520605,-2.283642 6.813475,-4.84315 0.88923,-1.760362 1.71668,-1.218265 0.94934,0.621928 -0.95347,2.286501 -2.64296,4.07634 -4.614706,4.888775 -1.746638,0.719679 -0.861499,1.141957 1.239657,0.591393 z"
         id="path157024-1-4-6-1"
         sodipodi:nodetypes="cssscsssssssssscsccsccccssscssssscsscscccsscsscssscsssscscscssssscsssssssscsssssssssscsssscsssscsssssssssssssscssssccsssscccsssssscscsccscccscsscccsssssssccsssssssssssccsscsscsccssscsscssssssssssscsssssssssscssscssssssssccssccssssccssssscssccsssscsssscssscsssssscsssscsscscccssssssssccssssssssscc"
         inkscape:export-filename="LogoVetor.svg"
         inkscape:export-xdpi="200"
         inkscape:export-ydpi="200" /><path
         d="m 364.83008,536.7921 -1.34766,6.74804 q -0.18555,0.92774 -0.18555,1.20118 0,0.27343 0.12696,0.58593 -0.98633,0.49805 -1.80664,0.49805 -0.50782,0 -0.50782,-0.41016 0,-0.21484 0.19532,-1.21093 l 1.47461,-7.41211 h -0.14649 q -0.8789,0 -1.89453,0.41992 0.47852,-1.03516 0.83984,-1.32813 0.3711,-0.30273 1.17188,-0.30273 h 0.26367 l 1.17188,-5.83984 h -0.21485 q -2.1289,0 -3.38867,1.1621 0.38086,-1.54296 1.31836,-2.06054 0.66406,-0.36133 4.12109,-0.36133 h 2.56836 q 2.8711,0 4.77539,-0.50781 -0.60546,1.06445 -1.26953,1.42578 -0.65429,0.35156 -2.02148,0.35156 l -0.85938,-0.01 h -2.98828 l -1.16211,5.83984 h 2.10938 q 1.96289,0 3.24219,-0.49805 -0.46875,1.10352 -1.08399,1.40625 -0.60547,0.30274 -2.39258,0.30274 z m 18.73047,-1.81641 q -2.02149,3.83789 -4.0625,6.02539 -2.04102,2.17774 -3.61328,2.17774 -1.14258,0 -1.84571,-0.87891 -0.70312,-0.88867 -0.70312,-2.31445 0,-0.80079 0.29297,-2.26563 l 1.94336,-9.78516 q -0.38086,0.0586 -0.66407,0.0586 -2.24609,0 -2.24609,-1.875 v -0.22461 q 1.17187,0.66406 2.64648,0.66406 1.47461,0 2.57813,-0.73242 l -2.26563,11.74805 q -0.30273,1.58203 -0.30273,2.17773 0,1.65039 1.21094,1.65039 1.17187,0 2.35351,-1.31836 1.19141,-1.32812 3.89649,-5.64453 z m 7.76367,0.76172 q 0.0293,0.23437 0.0293,0.41992 0,2.82227 -1.91407,4.92188 -1.91406,2.09961 -4.48242,2.09961 -1.96289,0 -3.20312,-1.25 -1.23047,-1.25977 -1.23047,-3.26172 0,-2.27539 1.59179,-3.94532 1.60157,-1.66992 3.76954,-1.66992 0.33203,0 0.70312,0.0879 -0.24414,-0.43945 -0.24414,-0.74218 0,-0.46875 0.32227,-0.89844 2.38281,0.19531 3.96484,2.4414 1.62109,1.10352 3.37891,1.10352 1.14257,0 2.4707,-0.77148 l 0.48828,0.83007 q -1.55273,1.08399 -3.18359,1.08399 -1.08399,0 -2.46094,-0.44922 z m -2.2168,-0.83008 q -0.81055,-0.24414 -1.49414,-0.78125 -0.49805,-0.10742 -0.83008,-0.10742 -1.66015,0 -2.94922,1.49414 -1.27929,1.49414 -1.27929,3.4082 0,1.38672 0.77148,2.28516 0.78125,0.88867 2.00195,0.88867 1.6504,0 2.8418,-1.66016 1.19141,-1.66992 1.19141,-3.9746 0,-0.80079 -0.25391,-1.55274 z m 7.5293,7.95899 q -0.66406,0.3125 -1.06445,0.3125 -0.9961,0 -0.9961,-0.87891 0,-0.44922 0.35156,-2.23633 l 0.48829,-2.43164 q 0.44921,-2.16797 0.44921,-3.21289 0,-0.56641 -0.32226,-0.94727 1.02539,-0.35156 1.66992,-0.35156 0.68359,0 0.68359,0.86914 0,0.53711 -0.48828,2.82227 l -0.55664,2.84179 q 1.84571,-3.58398 3.71094,-5.5664 1.875,-1.99219 3.39844,-1.99219 0.53711,0 0.92773,0.3125 0.39063,0.30274 0.39063,0.74219 0,0.68359 -1.48438,1.8164 -0.37109,-0.77148 -1.05469,-0.77148 -1.24023,0 -3.16406,2.63672 -1.1914,1.64062 -2.07031,3.38867 -0.87891,1.73828 -0.87891,2.48047 z m 10.41992,-3.99415 q 0,2.86133 2.42188,2.86133 2.0996,0 4.6289,-2.00195 2.5293,-2.00195 4.56055,-5.27344 l 0.83008,0.45899 q -1.91407,3.57422 -4.98047,5.91797 -3.05664,2.34375 -5.80078,2.34375 -1.75782,0 -2.78321,-1.13282 -1.01562,-1.13281 -1.01562,-3.0957 0,-2.83203 1.8457,-4.84375 1.85547,-2.01172 4.46289,-2.01172 1.25977,0 2.01172,0.63477 0.76172,0.63476 0.76172,1.69922 0,1.74804 -2.10938,3.0957 -2.0996,1.34765 -4.83398,1.34765 z m 0.0781,-0.9375 q 2.04101,-0.10742 3.49609,-1.17187 1.46484,-1.06445 1.46484,-2.46094 0,-1.25 -1.11328,-1.25 -1.32812,0 -2.45117,1.42578 -1.12305,1.42578 -1.39648,3.45703 z m 15.45898,1.5625 q 0.33203,0.74219 0.33203,1.41602 0,1.49414 -1.25,2.59766 -1.25,1.11328 -2.92969,1.11328 -0.98632,0 -1.67968,-0.50781 -0.69336,-0.50782 -0.69336,-1.22071 0,-0.76172 0.94726,-1.54297 0.95703,-0.78125 3.19336,-1.85547 l -0.78125,-1.25976 q -1.42578,-2.29492 -1.42578,-3.58399 0,-1.85546 2.1582,-2.98828 1.32813,0.50782 1.32813,1.2793 0,1.09375 -1.68945,2.09961 l 1.11328,2.05078 0.86914,1.58203 q 1.86523,-1.11328 2.8125,-1.90429 0.94726,-0.80079 2.39258,-2.46094 l 0.78125,0.47851 q -2.09961,2.8125 -5.47852,4.70703 z m -1.66016,0.87891 q -2.87109,1.54297 -2.87109,2.39258 0,0.80078 1.16211,0.80078 0.85937,0 1.39648,-0.58594 0.53711,-0.57617 0.53711,-1.49414 0,-0.54687 -0.22461,-1.11328 z m 18.56446,-5.41992 q -2.36328,3.96484 -5.00977,6.25 -2.64648,2.27539 -4.91211,2.27539 -1.88476,0 -3.05664,-1.28906 -1.17187,-1.28907 -1.17187,-3.34961 0,-2.71485 2.02148,-4.72656 2.02148,-2.02149 4.74609,-2.02149 1.10352,0 1.80664,0.42969 0.7129,0.41992 0.7129,1.07422 0,1.07422 -1.82618,1.61133 0.0977,-0.23438 0.0977,-0.44922 0,-1.58203 -1.67969,-1.58203 -1.45508,0 -2.68554,1.63085 -1.22071,1.6211 -1.22071,3.55469 0,1.57227 0.81055,2.56836 0.82031,0.98633 2.12891,0.98633 3.59375,0 8.41796,-7.45117 z m -0.73243,3.91601 q 0,2.86133 2.42188,2.86133 2.09961,0 4.62891,-2.00195 2.52929,-2.00195 4.56054,-5.27344 l 0.83008,0.45899 q -1.91406,3.57422 -4.98047,5.91797 -3.05664,2.34375 -5.80078,2.34375 -1.75781,0 -2.7832,-1.13282 -1.01563,-1.13281 -1.01563,-3.0957 0,-2.83203 1.84571,-4.84375 1.85546,-2.01172 4.46289,-2.01172 1.25976,0 2.01172,0.63477 0.76171,0.63476 0.76171,1.69922 0,1.74804 -2.10937,3.0957 -2.09961,1.34765 -4.83399,1.34765 z m 0.0781,-0.9375 q 2.04102,-0.10742 3.49609,-1.17187 1.46485,-1.06445 1.46485,-2.46094 0,-1.25 -1.11328,-1.25 -1.32813,0 -2.45118,1.42578 -1.12304,1.42578 -1.39648,3.45703 z m 12.02148,4.93165 q -0.66406,0.3125 -1.06445,0.3125 -0.99609,0 -0.99609,-0.87891 0,-0.44922 0.35156,-2.23633 l 0.48828,-2.43164 q 0.44922,-2.16797 0.44922,-3.21289 0,-0.56641 -0.32227,-0.94727 1.02539,-0.35156 1.66993,-0.35156 0.68359,0 0.68359,0.86914 0,0.53711 -0.48828,2.82227 l -0.55664,2.84179 q 1.8457,-3.58398 3.71094,-5.5664 1.875,-1.99219 3.39843,-1.99219 0.53711,0 0.92774,0.3125 0.39062,0.30274 0.39062,0.74219 0,0.68359 -1.48437,1.8164 -0.3711,-0.77148 -1.05469,-0.77148 -1.24023,0 -3.16406,2.63672 -1.19141,1.64062 -2.07032,3.38867 -0.8789,1.73828 -0.8789,2.48047 z"
         id="text157024-5-9-0-2"
         style="font-size:20px;line-height:0.95;font-family:'Lucida Handwriting';-inkscape-font-specification:'Lucida Handwriting';text-align:center;letter-spacing:0px;word-spacing:0px;white-space:pre;stroke-width:22.6772;stroke-linecap:round;stroke-linejoin:round;paint-order:markers fill stroke"
         transform="matrix(0.7966909,0,0,0.7966909,-227.83664,-294.04437)"
         aria-label="Florescer" /></g></g></svg>
